<svg id="Layer_1" data-name="Layer 1" xmlns="http://www.w3.org/2000/svg" viewBox="0 0 512 512">
  <defs>
  <style>.cls-1{fill:#f2496d;}.cls-2{opacity:0.3;}.cls-3{fill:#fff;}.cls-4{opacity:0.12;}.cls-5{fill:#2b374f;}</style>
  </defs>
  <title>blood-drops-filled</title>
    <path class="cls-1" d="M279.46,365.41c0,60-40.27,110.77-95.4,126.9v.06a134.78,134.78,0,0,1-76,0v-.06C53,476.18,12.7,425.43,12.7,365.41c0-74.44,81.17-180.19,116.87-223.13v-.06c10.1-12.07,16.51-19.12,16.51-19.12s6.41,7.05,16.51,19.12v.06C198.29,185.22,279.46,291,279.46,365.41Z"/>
    <g class="cls-2">
    <path class="cls-3" d="M129.57,142.28C93.87,185.22,12.7,291,12.7,365.41c0,60,40.27,110.77,95.4,126.9a171.81,171.81,0,0,1-44.59-115.6C63.51,324,94.57,230.57,129.57,142.28Z"/>
    </g>
    <g class="cls-4">
    <path d="M162.6,142.28c35,88.28,66.05,181.71,66.05,234.43a171.81,171.81,0,0,1-44.59,115.6c55.13-16.13,95.4-66.88,95.4-126.9C279.46,291,198.29,185.22,162.6,142.28Z"/>
    </g>
    <path class="cls-5" d="M146.08,510.54C65.53,510.54,0,445.42,0,365.39c0-99.13,131.1-244.68,136.68-250.83a13.11,13.11,0,0,1,18.81,0c5.58,6.15,136.68,151.7,136.68,250.83C292.17,445.42,226.63,510.54,146.08,510.54Zm0-368.09C116.19,177.56,25.41,290.38,25.41,365.39c0,66,54.14,119.74,120.68,119.74s120.68-53.72,120.68-119.74C266.76,290.38,176,177.56,146.08,142.45Z"/>
</svg>