<svg width="24" height="24" viewBox="0 0 24 24" fill="none" xmlns="http://www.w3.org/2000/svg">
    <g clip-path="url(#clip0_180_5661)">
        <path
            d="M23.8209 11.181C22.9429 9.261 19.4999 3 11.9999 3C4.49987 3 1.05687 9.261 0.178871 11.181C0.0610095 11.4383 0 11.718 0 12.001C0 12.284 0.0610095 12.5637 0.178871 12.821C1.05687 14.739 4.49987 21 11.9999 21C19.4999 21 22.9429 14.739 23.8209 12.819C23.9385 12.562 23.9994 12.2827 23.9994 12C23.9994 11.7173 23.9385 11.438 23.8209 11.181ZM11.9999 19C5.69287 19 2.74987 13.634 1.99987 12.011C2.74987 10.366 5.69287 5 11.9999 5C18.2919 5 21.2359 10.343 21.9999 12C21.2359 13.657 18.2919 19 11.9999 19Z"
            fill="currentColor" />
        <path
            d="M11.9998 7.00024C11.0109 7.00024 10.0442 7.29349 9.22191 7.8429C8.39966 8.3923 7.7588 9.1732 7.38036 10.0868C7.00192 11.0005 6.90291 12.0058 7.09583 12.9757C7.28876 13.9456 7.76496 14.8365 8.46422 15.5358C9.16349 16.235 10.0544 16.7112 11.0243 16.9042C11.9942 17.0971 12.9995 16.9981 13.9132 16.6196C14.8268 16.2412 15.6077 15.6003 16.1571 14.7781C16.7065 13.9559 16.9998 12.9892 16.9998 12.0002C16.9982 10.6746 16.4709 9.4038 15.5335 8.46646C14.5962 7.52913 13.3254 7.00183 11.9998 7.00024ZM11.9998 15.0002C11.4064 15.0002 10.8264 14.8243 10.333 14.4947C9.8397 14.165 9.45518 13.6965 9.22812 13.1483C9.00106 12.6001 8.94165 11.9969 9.0574 11.415C9.17316 10.833 9.45888 10.2985 9.87844 9.87892C10.298 9.45937 10.8325 9.17364 11.4145 9.05789C11.9964 8.94213 12.5996 9.00154 13.1478 9.22861C13.696 9.45567 14.1645 9.84019 14.4942 10.3335C14.8238 10.8269 14.9998 11.4069 14.9998 12.0002C14.9998 12.7959 14.6837 13.559 14.1211 14.1216C13.5585 14.6842 12.7954 15.0002 11.9998 15.0002Z"
            fill="currentColor" />
    </g>
    <defs>
        <clipPath id="clip0_180_5661">
            <rect width="24" height="24" fill="white" />
        </clipPath>
    </defs>
</svg>